<mxfile host="app.diagrams.net" modified="2023-12-15T16:12:19.030Z" agent="Mozilla/5.0 (Macintosh; Intel Mac OS X 10_15_7) AppleWebKit/605.1.15 (KHTML, like Gecko) Version/17.2 Safari/605.1.15" version="22.1.11" etag="6OzaK46xDcYRRNhJGdwW" type="github">
  <diagram name="Pagina-1" id="ozzTXvZXU9X8fIxmE-A8">
    <mxGraphModel>
      <root>
        <mxCell id="0" />
        <mxCell id="1" parent="0" />
      </root>
    </mxGraphModel>
  </diagram>
</mxfile>
